<svg width="57" height="57" viewBox="0 0 57 57" fill="none" xmlns="http://www.w3.org/2000/svg">
<rect x="1" y="1" width="55" height="55" rx="11" stroke="#B7B288" stroke-width="2"/>
<path d="M38.7066 27.2438L26.7727 15.3099L13.9438 28.1389C13.3971 28.6966 13.0909 29.4464 13.0909 30.2273C13.0909 31.0082 13.3971 31.758 13.9438 32.3157L21.7008 40.0727C22.8942 41.2661 24.6843 41.2661 25.8777 40.0727L38.7066 27.2438Z" stroke="#B7B288" stroke-width="2" stroke-linecap="round" stroke-linejoin="round"/>
<path d="M17.8223 13.8182L25.281 21.2769" stroke="#B7B288" stroke-width="2" stroke-linecap="round" stroke-linejoin="round"/>
<path d="M13.3471 30.2273H35.7231" stroke="#B7B288" stroke-width="2" stroke-linecap="round" stroke-linejoin="round"/>
<path d="M43.1818 40.6695C43.1818 41.4607 42.8675 42.2196 42.308 42.7791C41.7485 43.3386 40.9896 43.6529 40.1984 43.6529C39.4071 43.6529 38.6483 43.3386 38.0887 42.7791C37.5292 42.2196 37.2149 41.4607 37.2149 40.6695C37.2149 38.2827 39.7509 37.0893 40.1984 34.7025C40.6459 37.0893 43.1818 38.2827 43.1818 40.6695Z" stroke="#B7B288" stroke-width="2" stroke-linecap="round" stroke-linejoin="round"/>
</svg>
