<svg width="57" height="57" viewBox="0 0 57 57" fill="none" xmlns="http://www.w3.org/2000/svg">
<rect x="1" y="1" width="55" height="55" rx="11" stroke="#B7B288" stroke-width="2"/>
<rect x="22.5101" y="11.8058" width="10.0677" height="3.94287" stroke="#B7B288"/>
<rect x="30.1063" y="16.7487" width="14.4733" height="5.0174" transform="rotate(90 30.1063 16.7487)" stroke="#B7B288"/>
<rect x="0.264757" y="0.152845" width="7.11293" height="0.430356" transform="matrix(0.967101 -0.254393 0.263311 0.964711 23.6978 19.2297)" stroke="#B7B288" stroke-width="0.430356"/>
<rect x="0.264757" y="0.152845" width="7.11293" height="0.430356" transform="matrix(0.967101 -0.254393 0.263311 0.964711 23.6978 21.3564)" stroke="#B7B288" stroke-width="0.430356"/>
<rect x="0.264757" y="0.152845" width="7.11293" height="0.430356" transform="matrix(0.967101 -0.254393 0.263311 0.964711 23.6978 23.2906)" stroke="#B7B288" stroke-width="0.430356"/>
<rect x="0.264757" y="0.152845" width="7.11293" height="0.430356" transform="matrix(0.967101 -0.254393 0.263311 0.964711 23.6978 25.6547)" stroke="#B7B288" stroke-width="0.430356"/>
<rect x="0.264757" y="0.152845" width="7.11293" height="0.430356" transform="matrix(0.967101 -0.254393 0.263311 0.964711 23.6978 27.8037)" stroke="#B7B288" stroke-width="0.430356"/>
<rect x="0.264757" y="0.152845" width="7.11293" height="0.430356" transform="matrix(0.967101 -0.254393 0.263311 0.964711 23.6978 29.9528)" stroke="#B7B288" stroke-width="0.430356"/>
<rect x="38.8105" y="23.403" width="10.0677" height="3.94287" transform="rotate(45 38.8105 23.403)" stroke="#B7B288"/>
<rect x="40.687" y="32.2695" width="14.4733" height="5.0174" transform="rotate(135 40.687 32.2695)" stroke="#B7B288"/>
<rect x="0.0791342" y="0.295289" width="7.11293" height="0.430356" transform="matrix(0.863727 0.50396 -0.495965 0.868342 34.6322 29.4621)" stroke="#B7B288" stroke-width="0.430356"/>
<rect x="0.0791342" y="0.295289" width="7.11293" height="0.430356" transform="matrix(0.863727 0.50396 -0.495965 0.868342 33.1281 30.966)" stroke="#B7B288" stroke-width="0.430356"/>
<rect x="0.0791342" y="0.295289" width="7.11293" height="0.430356" transform="matrix(0.863727 0.50396 -0.495965 0.868342 31.7606 32.3337)" stroke="#B7B288" stroke-width="0.430356"/>
<rect x="0.0791342" y="0.295289" width="7.11293" height="0.430356" transform="matrix(0.863727 0.50396 -0.495965 0.868342 30.0889 34.0053)" stroke="#B7B288" stroke-width="0.430356"/>
<rect x="0.0791342" y="0.295289" width="7.11293" height="0.430356" transform="matrix(0.863727 0.50396 -0.495965 0.868342 28.5694 35.5249)" stroke="#B7B288" stroke-width="0.430356"/>
<rect x="0.0791342" y="0.295289" width="7.11293" height="0.430356" transform="matrix(0.863727 0.50396 -0.495965 0.868342 27.0497 37.0445)" stroke="#B7B288" stroke-width="0.430356"/>
<path d="M12.5005 21.8899L13.575 20.1707H18.7328L21.6341 24.7912L19.1626 29.4654H13.575L10.835 24.7912L11.9632 23.1794" stroke="#B7B288"/>
<circle cx="16.2615" cy="24.6837" r="2.02516" stroke="#B7B288"/>
<path d="M18.2868 24.6837C18.2868 25.2808 18.1009 25.803 17.8233 26.1652C17.5462 26.5271 17.1986 26.7089 16.8526 26.7089C16.5067 26.7089 16.159 26.5271 15.8819 26.1652C15.6044 25.803 15.4185 25.2808 15.4185 24.6837C15.4185 24.0866 15.6044 23.5645 15.8819 23.2022C16.159 22.8404 16.5067 22.6586 16.8526 22.6586C17.1986 22.6586 17.5462 22.8404 17.8233 23.2022C18.1009 23.5645 18.2868 24.0866 18.2868 24.6837Z" stroke="#B7B288"/>
<path d="M16.065 32.1095L17.8552 31.1579L22.322 33.7368L22.5243 39.1889L18.0468 42.0012L13.2078 39.2074L13.172 33.7893L14.955 32.9576" stroke="#B7B288"/>
<circle cx="17.9251" cy="36.4094" r="2.02516" transform="rotate(30 17.9251 36.4094)" stroke="#B7B288"/>
<path d="M19.6789 37.4219C19.3803 37.939 18.9583 38.2982 18.5368 38.4732C18.1159 38.648 17.7239 38.6317 17.4243 38.4587C17.1247 38.2857 16.9145 37.9544 16.8554 37.5025C16.7963 37.05 16.8963 36.5048 17.1948 35.9878C17.4934 35.4707 17.9155 35.1115 18.337 34.9364C18.7579 34.7617 19.1499 34.778 19.4495 34.951C19.749 35.124 19.9592 35.4553 20.0183 35.9072C20.0775 36.3597 19.9774 36.9048 19.6789 37.4219Z" stroke="#B7B288"/>
</svg>
