<svg width="57" height="58" viewBox="0 0 57 58" fill="none" xmlns="http://www.w3.org/2000/svg">
<rect x="1" y="1.64062" width="55" height="55" rx="11" stroke="#B7B288" stroke-width="2"/>
<path d="M42.6416 20.4571L33.2604 14.1616C32.7665 13.8262 32.1863 13.6404 31.5894 13.6267C30.9925 13.6129 30.4043 13.7718 29.8955 14.0841L14.4669 23.5739C14.0171 23.8513 13.6456 24.2392 13.3878 24.7005C13.13 25.1619 12.9944 25.6814 12.9938 26.2099V35.2346C12.993 35.7425 13.117 36.2429 13.355 36.6918C13.5929 37.1406 13.9375 37.5241 14.3583 37.8086L23.7396 44.1196C24.2335 44.455 24.8137 44.6408 25.4106 44.6545C26.0074 44.6683 26.5956 44.5095 27.1044 44.1971L42.5331 34.7073C42.9829 34.4299 43.3543 34.0421 43.6121 33.5807C43.87 33.1194 44.0056 32.5998 44.0062 32.0713V23.0312C44.0069 22.5232 43.8829 22.0228 43.645 21.5739C43.407 21.1251 43.0625 20.7416 42.6416 20.4571Z" stroke="#B7B288" stroke-width="2" stroke-linecap="round" stroke-linejoin="round"/>
<path d="M25.3987 44.6468V32.2418L13.3814 24.7213" stroke="#B7B288" stroke-width="2" stroke-linecap="round" stroke-linejoin="round"/>
<path d="M25.3987 32.2419L43.6495 21.5891" stroke="#B7B288" stroke-width="2" stroke-linecap="round" stroke-linejoin="round"/>
</svg>
