<svg width="57" height="58" viewBox="0 0 57 58" fill="none" xmlns="http://www.w3.org/2000/svg">
<rect x="1" y="1.64075" width="55" height="55" rx="11" stroke="#B7B288" stroke-width="2"/>
<path d="M16.095 32.242C15.8016 32.243 15.5139 32.1607 15.2654 32.0047C15.0168 31.8487 14.8177 31.6254 14.691 31.3607C14.5644 31.096 14.5154 30.8008 14.5498 30.5094C14.5843 30.218 14.7007 29.9423 14.8855 29.7145L30.2367 13.8981C30.3518 13.7652 30.5088 13.6754 30.6817 13.6434C30.8546 13.6114 31.0333 13.6392 31.1883 13.7221C31.3434 13.8051 31.4657 13.9383 31.5351 14.0999C31.6045 14.2615 31.6169 14.4419 31.5702 14.6114L28.593 23.9462C28.5052 24.1811 28.4758 24.4339 28.5071 24.6827C28.5385 24.9316 28.6297 25.1691 28.773 25.3749C28.9164 25.5808 29.1075 25.7488 29.33 25.8645C29.5525 25.9803 29.7998 26.0403 30.0506 26.0395H40.9049C41.1984 26.0385 41.4861 26.1208 41.7346 26.2768C41.9831 26.4328 42.1823 26.6561 42.309 26.9208C42.4356 27.1855 42.4846 27.4807 42.4501 27.7721C42.4157 28.0635 42.2993 28.3391 42.1144 28.567L26.7633 44.3833C26.6481 44.5162 26.4912 44.6061 26.3183 44.638C26.1454 44.67 25.9667 44.6423 25.8116 44.5593C25.6566 44.4764 25.5343 44.3432 25.4649 44.1816C25.3955 44.02 25.3831 43.8396 25.4298 43.67L28.407 34.3353C28.4947 34.1003 28.5242 33.8476 28.4929 33.5988C28.4615 33.3499 28.3703 33.1124 28.2269 32.9065C28.0836 32.7007 27.8925 32.5327 27.67 32.4169C27.4475 32.3012 27.2002 32.2412 26.9494 32.242H16.095Z" stroke="#B7B288" stroke-width="2" stroke-linecap="round" stroke-linejoin="round"/>
</svg>
