<svg width="57" height="57" viewBox="0 0 57 57" fill="none" xmlns="http://www.w3.org/2000/svg">
<rect x="1" y="1" width="55" height="55" rx="11" stroke="#B7B288" stroke-width="2"/>
<path d="M39.3544 17.6456C38.5319 17.6456 37.743 17.9724 37.1614 18.554C36.5799 19.1356 36.2531 19.9244 36.2531 20.7469V37.8037" stroke="#B7B288" stroke-width="2" stroke-linecap="round" stroke-linejoin="round"/>
<path d="M12.9938 37.8038C13.9242 38.5791 14.8546 39.3544 16.8704 39.3544C20.7469 39.3544 20.7469 36.2532 24.6235 36.2532C28.6551 36.2532 28.345 39.3544 32.3766 39.3544C36.2531 39.3544 36.2531 36.2532 40.1297 36.2532C42.1455 36.2532 43.0759 37.0285 44.0062 37.8038" stroke="#B7B288" stroke-width="2" stroke-linecap="round" stroke-linejoin="round"/>
<path d="M20.7469 30.0507H36.2531" stroke="#B7B288" stroke-width="2" stroke-linecap="round" stroke-linejoin="round"/>
<path d="M20.7469 23.8481H36.2531" stroke="#B7B288" stroke-width="2" stroke-linecap="round" stroke-linejoin="round"/>
<path d="M23.8481 17.6456C23.0256 17.6456 22.2368 17.9724 21.6552 18.554C21.0736 19.1356 20.7469 19.9244 20.7469 20.7469V37.8037" stroke="#B7B288" stroke-width="2" stroke-linecap="round" stroke-linejoin="round"/>
</svg>
