<svg width="53" height="53" viewBox="0 0 53 53" fill="none" xmlns="http://www.w3.org/2000/svg">
<rect x="1" y="1.35925" width="50.2815" height="50.2815" rx="11" stroke="#B7B288" stroke-width="2"/>
<path d="M35.5446 27.9067C34.9631 26.0897 33.7234 24.378 31.8298 22.8633C29.0933 20.6741 27.0409 17.3903 26.3568 13.9697C26.1065 15.196 25.7 16.3851 25.1472 17.508" stroke="#B7B288" stroke-width="2" stroke-linecap="round" stroke-linejoin="round"/>
<path d="M12.6743 12.6014L40.0392 39.9664" stroke="#B7B288" stroke-width="2" stroke-linecap="round" stroke-linejoin="round"/>
<path d="M21.9716 21.9015C21.6247 22.2394 21.2616 22.5604 20.8838 22.8634C18.1473 25.0526 16.7791 27.6522 16.7791 30.3887C16.7788 32.5363 17.5004 34.6216 18.8278 36.3098C20.1552 37.998 22.0115 39.191 24.0985 39.6974C26.1855 40.2038 28.3821 39.994 30.3356 39.1019C32.2891 38.2097 33.886 36.6869 34.87 34.7781" stroke="#B7B288" stroke-width="2" stroke-linecap="round" stroke-linejoin="round"/>
</svg>
