<svg width="57" height="58" viewBox="0 0 57 58" fill="none" xmlns="http://www.w3.org/2000/svg">
<rect x="1" y="1.64062" width="55" height="55" rx="11" stroke="#B7B288" stroke-width="2"/>
<mask id="path-2-outside-1_113_102" maskUnits="userSpaceOnUse" x="9" y="10.6406" width="40" height="38" fill="black">
<rect fill="white" x="9" y="10.6406" width="40" height="38"/>
<path d="M11.794 17.8766V13.0826H18.703V17.8766H11.794ZM25.612 17.8766V13.0826H32.568V17.8766H25.612ZM39.477 17.8766V13.0826H46.386V17.8766H39.477ZM32.568 27.4646V22.6706H46.386V27.4646H32.568ZM11.794 27.4646V22.6706H25.612V27.4646H11.794ZM11.794 37.0526V32.2586H18.703V37.0526H11.794ZM25.612 37.0526V32.2586H32.568V37.0526H25.612ZM39.477 37.0526V32.2586H46.386V37.0526H39.477ZM11.794 46.6406V41.8466H18.703V46.6406H11.794ZM25.612 46.6406V41.8466H32.568V46.6406H25.612ZM39.477 46.6406V41.8466H46.386V46.6406H39.477Z"/>
</mask>
<path d="M11.794 17.8766H9.794V19.8766H11.794V17.8766ZM11.794 13.0826V11.0826H9.794V13.0826H11.794ZM18.703 13.0826H20.703V11.0826H18.703V13.0826ZM18.703 17.8766V19.8766H20.703V17.8766H18.703ZM25.612 17.8766H23.612V19.8766H25.612V17.8766ZM25.612 13.0826V11.0826H23.612V13.0826H25.612ZM32.568 13.0826H34.568V11.0826H32.568V13.0826ZM32.568 17.8766V19.8766H34.568V17.8766H32.568ZM39.477 17.8766H37.477V19.8766H39.477V17.8766ZM39.477 13.0826V11.0826H37.477V13.0826H39.477ZM46.386 13.0826H48.386V11.0826H46.386V13.0826ZM46.386 17.8766V19.8766H48.386V17.8766H46.386ZM32.568 27.4646H30.568V29.4646H32.568V27.4646ZM32.568 22.6706V20.6706H30.568V22.6706H32.568ZM46.386 22.6706H48.386V20.6706H46.386V22.6706ZM46.386 27.4646V29.4646H48.386V27.4646H46.386ZM11.794 27.4646H9.794V29.4646H11.794V27.4646ZM11.794 22.6706V20.6706H9.794V22.6706H11.794ZM25.612 22.6706H27.612V20.6706H25.612V22.6706ZM25.612 27.4646V29.4646H27.612V27.4646H25.612ZM11.794 37.0526H9.794V39.0526H11.794V37.0526ZM11.794 32.2586V30.2586H9.794V32.2586H11.794ZM18.703 32.2586H20.703V30.2586H18.703V32.2586ZM18.703 37.0526V39.0526H20.703V37.0526H18.703ZM25.612 37.0526H23.612V39.0526H25.612V37.0526ZM25.612 32.2586V30.2586H23.612V32.2586H25.612ZM32.568 32.2586H34.568V30.2586H32.568V32.2586ZM32.568 37.0526V39.0526H34.568V37.0526H32.568ZM39.477 37.0526H37.477V39.0526H39.477V37.0526ZM39.477 32.2586V30.2586H37.477V32.2586H39.477ZM46.386 32.2586H48.386V30.2586H46.386V32.2586ZM46.386 37.0526V39.0526H48.386V37.0526H46.386ZM11.794 46.6406H9.794V48.6406H11.794V46.6406ZM11.794 41.8466V39.8466H9.794V41.8466H11.794ZM18.703 41.8466H20.703V39.8466H18.703V41.8466ZM18.703 46.6406V48.6406H20.703V46.6406H18.703ZM25.612 46.6406H23.612V48.6406H25.612V46.6406ZM25.612 41.8466V39.8466H23.612V41.8466H25.612ZM32.568 41.8466H34.568V39.8466H32.568V41.8466ZM32.568 46.6406V48.6406H34.568V46.6406H32.568ZM39.477 46.6406H37.477V48.6406H39.477V46.6406ZM39.477 41.8466V39.8466H37.477V41.8466H39.477ZM46.386 41.8466H48.386V39.8466H46.386V41.8466ZM46.386 46.6406V48.6406H48.386V46.6406H46.386ZM13.794 17.8766V13.0826H9.794V17.8766H13.794ZM11.794 15.0826H18.703V11.0826H11.794V15.0826ZM16.703 13.0826V17.8766H20.703V13.0826H16.703ZM18.703 15.8766H11.794V19.8766H18.703V15.8766ZM27.612 17.8766V13.0826H23.612V17.8766H27.612ZM25.612 15.0826H32.568V11.0826H25.612V15.0826ZM30.568 13.0826V17.8766H34.568V13.0826H30.568ZM32.568 15.8766H25.612V19.8766H32.568V15.8766ZM41.477 17.8766V13.0826H37.477V17.8766H41.477ZM39.477 15.0826H46.386V11.0826H39.477V15.0826ZM44.386 13.0826V17.8766H48.386V13.0826H44.386ZM46.386 15.8766H39.477V19.8766H46.386V15.8766ZM34.568 27.4646V22.6706H30.568V27.4646H34.568ZM32.568 24.6706H46.386V20.6706H32.568V24.6706ZM44.386 22.6706V27.4646H48.386V22.6706H44.386ZM46.386 25.4646H32.568V29.4646H46.386V25.4646ZM13.794 27.4646V22.6706H9.794V27.4646H13.794ZM11.794 24.6706H25.612V20.6706H11.794V24.6706ZM23.612 22.6706V27.4646H27.612V22.6706H23.612ZM25.612 25.4646H11.794V29.4646H25.612V25.4646ZM13.794 37.0526V32.2586H9.794V37.0526H13.794ZM11.794 34.2586H18.703V30.2586H11.794V34.2586ZM16.703 32.2586V37.0526H20.703V32.2586H16.703ZM18.703 35.0526H11.794V39.0526H18.703V35.0526ZM27.612 37.0526V32.2586H23.612V37.0526H27.612ZM25.612 34.2586H32.568V30.2586H25.612V34.2586ZM30.568 32.2586V37.0526H34.568V32.2586H30.568ZM32.568 35.0526H25.612V39.0526H32.568V35.0526ZM41.477 37.0526V32.2586H37.477V37.0526H41.477ZM39.477 34.2586H46.386V30.2586H39.477V34.2586ZM44.386 32.2586V37.0526H48.386V32.2586H44.386ZM46.386 35.0526H39.477V39.0526H46.386V35.0526ZM13.794 46.6406V41.8466H9.794V46.6406H13.794ZM11.794 43.8466H18.703V39.8466H11.794V43.8466ZM16.703 41.8466V46.6406H20.703V41.8466H16.703ZM18.703 44.6406H11.794V48.6406H18.703V44.6406ZM27.612 46.6406V41.8466H23.612V46.6406H27.612ZM25.612 43.8466H32.568V39.8466H25.612V43.8466ZM30.568 41.8466V46.6406H34.568V41.8466H30.568ZM32.568 44.6406H25.612V48.6406H32.568V44.6406ZM41.477 46.6406V41.8466H37.477V46.6406H41.477ZM39.477 43.8466H46.386V39.8466H39.477V43.8466ZM44.386 41.8466V46.6406H48.386V41.8466H44.386ZM46.386 44.6406H39.477V48.6406H46.386V44.6406Z" fill="#B7B288" mask="url(#path-2-outside-1_113_102)"/>
</svg>
