<svg width="57" height="58" viewBox="0 0 57 58" fill="none" xmlns="http://www.w3.org/2000/svg">
<rect x="1" y="1.64075" width="55" height="55" rx="11" stroke="#B7B288" stroke-width="2"/>
<path d="M33.1522 43.0962V30.6912C33.1522 30.28 32.9889 29.8856 32.6981 29.5948C32.4073 29.304 32.0129 29.1406 31.6016 29.1406H25.3991C24.9879 29.1406 24.5935 29.304 24.3027 29.5948C24.0119 29.8856 23.8485 30.28 23.8485 30.6912V43.0962" stroke="#B7B288" stroke-width="2" stroke-linecap="round" stroke-linejoin="round"/>
<path d="M14.5448 26.0394C14.5447 25.5883 14.643 25.1426 14.8329 24.7333C15.0228 24.3241 15.2996 23.9613 15.6442 23.6701L26.4985 14.3679C27.0583 13.8948 27.7675 13.6353 28.5004 13.6353C29.2333 13.6353 29.9425 13.8948 30.5022 14.3679L41.3566 23.6701C41.7011 23.9613 41.978 24.3241 42.1679 24.7333C42.3578 25.1426 42.4561 25.5883 42.456 26.0394V39.995C42.456 40.8175 42.1292 41.6063 41.5476 42.1879C40.966 42.7695 40.1772 43.0962 39.3547 43.0962H17.646C16.8235 43.0962 16.0347 42.7695 15.4531 42.1879C14.8715 41.6063 14.5448 40.8175 14.5448 39.995V26.0394Z" stroke="#B7B288" stroke-width="2" stroke-linecap="round" stroke-linejoin="round"/>
</svg>
